<svg width="400" height="400" viewBox="0 0 400 400" fill="none" xmlns="http://www.w3.org/2000/svg">
    <style>
        path,
        rect {
            fill: #000;
        }

        @media (prefers-color-scheme: dark) {

            path,
            rect {
                fill: #fff;
            }
        }
    </style>

    <path fill-rule="evenodd" clip-rule="evenodd" d="M400 0H0V400H400V0ZM380 20H20V380H380V20Z" fill="black" />
    <path fill-rule="evenodd" clip-rule="evenodd" d="M180 60H60V180H180V60ZM160 80H80V160H160V80Z" fill="black" />
    <rect x="100" y="100" width="40" height="40" fill="black" />
    <rect x="270" y="220" width="20" height="120" fill="black" />
    <rect x="220" y="270" width="120" height="20" fill="black" />
    <rect x="220" y="80" width="20" height="80" fill="black" />
    <rect x="320" y="80" width="20" height="60" fill="black" />
    <rect x="240" y="160" width="60" height="20" fill="black" />
    <rect x="240" y="60" width="80" height="20" fill="black" />
    <rect x="280" y="120" width="20" height="20" fill="black" />
    <rect x="300" y="140" width="20" height="20" fill="black" />
    <rect x="320" y="160" width="20" height="20" fill="black" />
    <rect x="140" y="320" width="20" height="20" fill="black" />
    <rect x="120" y="300" width="20" height="20" fill="black" />
    <rect x="60" y="220" width="20" height="120" fill="black" />
    <rect x="140" y="240" width="20" height="40" fill="black" />
    <rect x="80" y="220" width="60" height="20" fill="black" />
    <rect x="80" y="280" width="60" height="20" fill="black" />
</svg>